#!OML:ASF I:\Actors\actors\Patient Classification 2\Patient 1\Session 1\actor1.ASF
:FULLY-SPECIFIED
:DEGREES
91
root -0.630643 18.7165 5.47216 0.869484 -1.3741 -2.81465
lowerback 7.56676 2.0434 -0.176767
upperback -2.37838 2.64391 -1.08093
thorax -6.69298 1.2817 -1.38109
lowerneck -13.1592 -4.8137 -3.83522
upperneck 11.6782 -6.95026 7.94195
head 6.12205 -2.94379 2.4992
rclavicle -4.95098e-014 -6.36111e-015
rhumerus 4.75843 15.682 -54.3349
rradius 108.868
rwrist 4.71258
rhand -28.7463 -30.2993
rfingers 7.12502
rthumb -2.1067 -60.2687
lclavicle -4.95098e-014 -6.36111e-015
lhumerus -44.3467 -4.0325 87.3243
lradius 42.5371
lwrist -6.44788
lhand -1.28027 -24.7127
lfingers 7.12502
lthumb 24.3635 3.75861
rfemur 0 0 0
rtibia 0
rfoot 0 0
rtoes 0
lfemur -5.36951 -5.86934 -11.3197
ltibia 21.9731
lfoot -21.6338 12.9076
ltoes -55.3824
92
root -0.623084 18.7196 5.4692 0.8971 -1.27437 -2.85729
lowerback 7.73289 2.18558 -0.00569737
upperback -2.46206 2.84083 -1.22346
thorax -6.85785 1.36614 -1.6622
lowerneck -12.9868 -5.05444 -4.02821
upperneck 11.5674 -7.28223 8.23735
head 6.0974 -3.09746 2.5944
rclavicle 9.98893e-015 3.18055e-015
rhumerus 8.36839 12.1296 -53.5182
rradius 106.609
rwrist 5.16121
rhand -28.6322 -29.6934
rfingers 7.12502
rthumb -1.99645 -59.6638
lclavicle 9.98893e-015 3.18055e-015
lhumerus -44.3595 -4.23635 87.2106
lradius 42.7136
lwrist -6.20832
lhand -1.68579 -25.0313
lfingers 7.12502
lthumb 23.9747 3.49163
rfemur 0 0 0
rtibia 0
rfoot 0 0
rtoes 0
lfemur -5.46955 -5.88817 -11.2941
ltibia 22.0373
lfoot -21.5852 12.9306
ltoes -55.4721
93
root -0.616942 18.722 5.46632 0.945935 -1.12241 -2.84181
lowerback 7.93442 2.34962 0.0912925
upperback -2.54718 3.05667 -1.40497
thorax -7.04394 1.4611 -1.94869
lowerneck -12.9067 -5.35655 -4.11293
upperneck 11.4612 -7.71052 8.4918
head 6.09233 -3.29382 2.64733
rclavicle 1.38528e-015 6.36111e-015
rhumerus 12.321 9.23839 -51.7613
rradius 103.973
rwrist 4.82244
rhand -28.7559 -29.9022
rfingers 7.12502
rthumb -2.116 -59.8714
lclavicle 1.38528e-015 6.36111e-015
lhumerus -44.4025 -4.53177 87.1246
lradius 42.9845
lwrist -5.75937
lhand -2.89884 -25.522
lfingers 7.12502
lthumb 22.811 3.14912
rfemur 0 0 0
rtibia 0
rfoot 0 0
rtoes 0
lfemur -5.60335 -5.94433 -11.3225
ltibia 22.0887
lfoot -21.5382 12.9118
ltoes -55.5567
94
root -0.61166 18.7237 5.46449 0.951132 -0.926228 -2.81042
lowerback 8.19052 2.50934 0.0997109
upperback -2.59799 3.25926 -1.54938
thorax -7.23061 1.55372 -2.1486
lowerneck -12.9242 -5.65956 -4.21962
upperneck 11.3687 -8.13666 8.7601
head 6.11113 -3.48618 2.7058
rclavicle 1.50051e-014 -2.06736e-014
rhumerus 16.0725 6.55232 -50.1428
rradius 101.045
rwrist 4.29221
rhand -28.7693 -30.1342
rfingers 7.12502
rthumb -2.12887 -60.1033
lclavicle 1.50051e-014 -2.06736e-014
lhumerus -44.4769 -4.71815 87.0635
lradius 43.366
lwrist -5.35334
lhand -3.5353 -25.7509
lfingers 7.12502
lthumb 22.2001 2.99424
rfemur 0 0 0
rtibia 0
rfoot 0 0
rtoes 0
lfemur -5.68751 -6.02991 -11.3684
ltibia 22.1265
lfoot -21.479 12.8605
ltoes -55.6201
95
root -0.60561 18.7252 5.46499 0.929104 -0.732487 -2.8295
lowerback 8.42488 2.65087 0.136526
upperback -2.61502 3.44401 -1.64764
thorax -7.36949 1.6378 -2.3127
lowerneck -12.9157 -5.93369 -4.3853
upperneck 11.1982 -8.5044 9.01678
head 6.10033 -3.65646 2.77651
rclavicle -7.18886e-014 8.74653e-015
rhumerus 19.4923 4.14006 -48.8382
rradius 97.9328
rwrist 3.90515
rhand -28.9274 -30.2798
rfingers 7.12502
rthumb -2.28164 -60.2473
lclavicle -7.18886e-014 8.74653e-015
lhumerus -44.5294 -4.79278 87.0116
lradius 43.7803
lwrist -5.03431
lhand -3.62037 -25.7393
lfingers 7.12502
lthumb 22.1185 3.01553
rfemur 0 0 0
rtibia 0
rfoot 0 0
rtoes 0
lfemur -5.72061 -6.16795 -11.3729
ltibia 22.1534
lfoot -21.4227 12.8634
ltoes -55.7207
96
root -0.599937 18.7266 5.46685 0.973741 -0.587039 -2.90801
lowerback 8.59386 2.78085 0.241887
upperback -2.65103 3.62175 -1.74444
thorax -7.48622 1.71539 -2.51079
lowerneck -12.8768 -6.18216 -4.5355
upperneck 10.9651 -8.83116 9.24785
head 6.06136 -3.81087 2.84162
rclavicle -2.71899e-014 -7.95139e-016
rhumerus 22.4298 2.08941 -47.8062
rradius 94.9009
rwrist 3.67567
rhand -29.4486 -30.6961
rfingers 7.12502
rthumb -2.78495 -60.6576
lclavicle -2.71899e-014 -7.95139e-016
lhumerus -44.5853 -4.87038 86.942
lradius 44.1667
lwrist -4.64262
lhand -3.77156 -25.7228
lfingers 7.12502
lthumb 21.9733 3.0492
rfemur 0 0 0
rtibia 0
rfoot 0 0
rtoes 0
lfemur -5.81217 -6.25262 -11.2991
ltibia 22.175
lfoot -21.3715 12.8322
ltoes -55.7598
97
root -0.596267 18.7282 5.46928 1.04986 -0.451332 -2.96855
lowerback 8.74663 2.90126 0.279525
upperback -2.70657 3.77872 -1.84385
thorax -7.61848 1.78525 -2.67173
lowerneck -12.958 -6.40939 -4.61169
upperneck 10.8963 -9.14482 9.42003
head 6.08859 -3.9524 2.87333
rclavicle 1.17174e-014 -6.36111e-015
rhumerus 24.8675 0.284228 -47.0689
rradius 92.1052
rwrist 3.53243
rhand -29.7203 -31.1592
rfingers 7.12502
rthumb -3.0473 -61.1172
lclavicle 1.17174e-014 -6.36111e-015
lhumerus -44.6627 -4.87985 86.8367
lradius 44.4923
lwrist -4.3191
lhand -3.87581 -25.7681
lfingers 7.12502
lthumb 21.8732 3.01562
rfemur 0 0 0
rtibia 0
rfoot 0 0
rtoes 0
lfemur -5.94234 -6.26097 -11.2252
ltibia 22.2017
lfoot -21.2988 12.7405
ltoes -55.7504
98
root -0.591946 18.7296 5.47459 1.0757 -0.281835 -2.95754
lowerback 8.87245 3.00673 0.201668
upperback -2.72138 3.90365 -1.92368
thorax -7.70141 1.84622 -2.74
lowerneck -13.0987 -6.64182 -4.66386
upperneck 10.9099 -9.46239 9.50317
head 6.14699 -4.09724 2.86994
rclavicle 1.07468e-015 -1.66979e-014
rhumerus 26.8717 -1.33547 -46.6552
rradius 89.6876
rwrist 3.26223
rhand -29.3729 -31.3591
rfingers 7.12502
rthumb -2.71188 -61.3216
lclavicle 1.07468e-015 -1.66979e-014
lhumerus -44.7348 -4.87868 86.7848
lradius 44.8048
lwrist -4.0404
lhand -3.99199 -25.8193
lfingers 7.12502
lthumb 21.7616 2.97741
rfemur 0 0 0
rtibia 0
rfoot 0 0
rtoes 0
lfemur -6.02276 -6.38912 -11.2495
ltibia 22.2491
lfoot -21.302 12.7493
ltoes -55.7812
99
root -0.586004 18.7308 5.48321 1.07401 -0.131551 -2.96904
lowerback 8.98734 3.12185 0.170614
upperback -2.72592 4.04731 -1.99924
thorax -7.7632 1.91461 -2.83204
lowerneck -13.1695 -6.89753 -4.80542
upperneck 10.8419 -9.80497 9.68841
head 6.18014 -4.25451 2.91209
rclavicle 1.72881e-014 1.43125e-014
rhumerus 28.3232 -2.62863 -46.4021
rradius 87.7517
rwrist 3.11598
rhand -28.9752 -31.6193
rfingers 7.12502
rthumb -2.32779 -61.5864
lclavicle 1.72881e-014 1.43125e-014
lhumerus -44.8129 -4.98772 86.7907
lradius 45.0943
lwrist -3.77609
lhand -4.00149 -25.7437
lfingers 7.12502
lthumb 21.7525 3.05397
rfemur 0 0 0
rtibia 0
rfoot 0 0
rtoes 0
lfemur -6.06503 -6.58747 -11.2692
ltibia 22.3246
lfoot -21.3649 12.8166
ltoes -55.7882
100
root -0.581176 18.7327 5.49125 1.11469 -0.00824947 -3.07194
lowerback 9.0938 3.23456 0.237943
upperback -2.7667 4.19974 -2.07202
thorax -7.85148 1.98192 -2.97913
lowerneck -13.2185 -7.14555 -4.87779
upperneck 10.7596 -10.1435 9.8345
head 6.20021 -4.41086 2.93144
rclavicle 2.48108e-014 -1.19271e-014
rhumerus 29.2093 -3.57712 -46.4093
rradius 86.4162
rwrist 3.16265
rhand -28.6241 -32.3291
rfingers 7.12502
rthumb -1.98866 -62.2996
lclavicle 2.48108e-014 -1.19271e-014
lhumerus -44.9303 -5.15248 86.7914
lradius 45.368
lwrist -3.59463
lhand -3.91483 -25.5796
lfingers 7.12502
lthumb 21.8357 3.20842
rfemur 0 0 0
rtibia 0
rfoot 0 0
rtoes 0
lfemur -6.15728 -6.72084 -11.1712
ltibia 22.4241
lfoot -21.4194 12.8188
ltoes -55.7303
101
root -0.569367 18.7366 5.49276 1.24475 0.0132282 -3.15421
lowerback 9.17758 3.33846 0.361397
upperback -2.8421 4.34592 -2.16542
thorax -7.95775 2.04221 -3.17913
lowerneck -13.2737 -7.33645 -4.8826
upperneck 10.6902 -10.4056 9.90121
head 6.21194 -4.53285 2.92288
rclavicle 5.61815e-014 -1.19271e-014
rhumerus 29.6696 -4.16053 -46.6414
rradius 85.5257
rwrist 3.65092
rhand -28.6031 -32.7913
rfingers 7.12502
rthumb -1.96842 -62.762
lclavicle 5.61815e-014 -1.19271e-014
lhumerus -45.0269 -5.26054 86.7749
lradius 45.5627
lwrist -3.43239
lhand -3.8999 -25.5778
lfingers 7.12502
lthumb 21.8501 3.20861
rfemur 0 0 0
rtibia 0
rfoot 0 0
rtoes 0
lfemur -6.35097 -6.88658 -11.1289
ltibia 22.5271
lfoot -21.5233 12.9719
ltoes -55.644
102
root -0.541753 18.7425 5.486 1.46806 -0.233 -3.14632
lowerback 9.27804 3.5027 0.569348
upperback -2.95737 4.57958 -2.3106
thorax -8.10003 2.13811 -3.49867
lowerneck -13.312 -7.49606 -4.97725
upperneck 10.5794 -10.6159 10.0448
head 6.21333 -4.62955 2.95908
rclavicle -2.48232e-014 -3.18055e-015
rhumerus 29.7833 -4.45936 -46.8626
rradius 85.182
rwrist 3.79825
rhand -28.7781 -33.2005
rfingers 7.12502
rthumb -2.1374 -63.1696
lclavicle -2.48232e-014 -3.18055e-015
lhumerus -44.9947 -5.08454 86.6964
lradius 45.5347
lwrist -3.50404
lhand -3.86444 -25.6536
lfingers 7.12502
lthumb 21.8841 3.12883
rfemur 0 0 0
rtibia 0
rfoot 0 0
rtoes 0
lfemur -6.63065 -7.17003 -11.2867
ltibia 22.6265
lfoot -21.7156 13.5313
ltoes -55.5666
103
root -0.540316 18.7425 5.49839 1.49217 -0.0930729 -3.15718
lowerback 9.28128 3.56894 0.412518
upperback -2.95271 4.64713 -2.32684
thorax -8.10419 2.17839 -3.43896
lowerneck -13.3345 -7.66192 -5.06587
upperneck 10.4513 -10.8249 10.1253
head 6.20266 -4.73106 2.97509
rclavicle -4.21175e-015 -1.35174e-014
rhumerus 29.5709 -4.49437 -47.0388
rradius 85.3319
rwrist 3.84166
rhand -28.8841 -33.6494
rfingers 7.12502
rthumb -2.23978 -63.6173
lclavicle -4.21175e-015 -1.35174e-014
lhumerus -44.9141 -4.70085 86.5797
lradius 45.398
lwrist -3.7676
lhand -3.71861 -25.6905
lfingers 7.12502
lthumb 22.0242 3.0755
rfemur 0 0 0
rtibia 0
rfoot 0 0
rtoes 0
lfemur -6.69148 -7.20316 -11.2765
ltibia 22.6873
lfoot -21.666 13.4944
ltoes -55.6942
104
root -0.537099 18.7426 5.51074 1.54609 -0.0283472 -3.17719
lowerback 9.22661 3.62344 0.25468
upperback -2.95392 4.70062 -2.32642
thorax -8.08372 2.21296 -3.3546
lowerneck -13.4176 -7.801 -5.23856
upperneck 10.4323 -11.0045 10.2999
head 6.2454 -4.80942 3.03401
rclavicle -3.42655e-014 -3.18055e-015
rhumerus 29.1893 -4.21552 -47.1679
rradius 85.8044
rwrist 3.90139
rhand -28.9273 -33.9208
rfingers 7.12502
rthumb -2.28145 -63.8884
lclavicle -3.42655e-014 -3.18055e-015
lhumerus -44.9498 -4.42061 86.5242
lradius 45.3484
lwrist -3.776
lhand -3.67887 -25.7543
lfingers 7.12502
lthumb 22.0623 3.00716
rfemur 0 0 0
rtibia 0
rfoot 0 0
rtoes 0
lfemur -6.73807 -7.27942 -11.2661
ltibia 22.7073
lfoot -21.683 13.5162
ltoes -55.7314
105
root -0.533623 18.7425 5.52282 1.59188 0.0365018 -3.20879
lowerback 9.18126 3.62687 0.111621
upperback -2.97167 4.68829 -2.31608
thorax -8.08976 2.21426 -3.25964
lowerneck -13.5105 -7.87155 -5.44858
upperneck 10.4647 -11.0998 10.5504
head 6.3069 -4.84093 3.13153
rclavicle -6.48411e-014 -1.59028e-014
rhumerus 28.6726 -3.58111 -47.2522
rradius 86.5272
rwrist 4.03386
rhand -28.8233 -34.1042
rfingers 7.12502
rthumb -2.18106 -64.0728
lclavicle -6.48411e-014 -1.59028e-014
lhumerus -45.1224 -4.23255 86.5053
lradius 45.3568
lwrist -3.62764
lhand -3.81781 -25.7587
lfingers 7.12502
lthumb 21.9289 3.01849
rfemur 0 0 0
rtibia 0
rfoot 0 0
rtoes 0
lfemur -6.75385 -7.36207 -11.2371
ltibia 22.6765
lfoot -21.6949 13.5226
ltoes -55.6714
106
root -0.530786 18.742 5.53691 1.61527 0.112054 -3.22913
lowerback 9.14059 3.6089 -0.0318293
upperback -2.99588 4.6481 -2.29485
thorax -8.10767 2.20204 -3.14947
lowerneck -13.5928 -7.90849 -5.57461
upperneck 10.5463 -11.1487 10.6596
head 6.36488 -4.85609 3.17665
rclavicle 1.21134e-014 -4.77083e-015
rhumerus 27.9557 -2.64603 -47.215
rradius 87.4281
rwrist 3.97272
rhand -28.6695 -34.2246
rfingers 7.12502
rthumb -2.03252 -64.1947
lclavicle 1.21134e-014 -4.77083e-015
lhumerus -45.3414 -4.03021 86.474
lradius 45.3262
lwrist -3.66453
lhand -3.93178 -25.6706
lfingers 7.12502
lthumb 21.8195 3.11931
rfemur 0 0 0
rtibia 0
rfoot 0 0
rtoes 0
lfemur -6.7461 -7.40732 -11.2184
ltibia 22.6498
lfoot -21.6923 13.4923
ltoes -55.6202
